<svg xmlns="http://www.w3.org/2000/svg" xmlns:xlink="http://www.w3.org/1999/xlink" viewBox="0 0 240.86 256.25"><defs><style>.cls-1,.cls-3,.cls-4{fill:none;}.cls-2{clip-path:url(#clip-path);}.cls-3,.cls-4{stroke:#231f20;stroke-miterlimit:10;}.cls-3{stroke-width:1.13px;}.cls-4{stroke-width:0.99px;}</style><clipPath id="clip-path"><ellipse class="cls-1" cx="120.06" cy="128.14" rx="63.41" ry="64.49"/></clipPath></defs><title>Asset 4</title><g id="Layer_2" data-name="Layer 2"><g id="Layer_1-2" data-name="Layer 1"><g class="cls-2"><circle class="cls-3" cx="120.44" cy="128.14" r="63.79"/><circle class="cls-3" cx="122.13" cy="64.35" r="63.79"/><circle class="cls-3" cx="66.06" cy="94.79" r="63.79"/><circle class="cls-3" cx="176.51" cy="97.69" r="63.79"/><path class="cls-3" d="M176.5,97.71a63.86,63.86,0,1,1-1.67,0l1.67,0"/><path class="cls-3" d="M75.33,238.63a63.79,63.79,0,1,1,99.5-77.15"/><path class="cls-3" d="M174.83,161.48a63.79,63.79,0,0,1-99.5,77.15"/><path class="cls-3" d="M64.35,222.36a63.79,63.79,0,1,1,63.79-63.78,63.79,63.79,0,0,1-63.79,63.78"/></g><ellipse class="cls-4" cx="120.06" cy="128.13" rx="63.41" ry="63.78"/></g></g></svg>