<?xml version="1.0" encoding="utf-8"?>
<!-- Generator: Adobe Illustrator 22.1.0, SVG Export Plug-In . SVG Version: 6.00 Build 0)  -->
<svg version="1.1" id="Layer_1" xmlns="http://www.w3.org/2000/svg" xmlns:xlink="http://www.w3.org/1999/xlink" x="0px" y="0px"
	 viewBox="0 0 1000 1000" style="enable-background:new 0 0 1000 1000;" xml:space="preserve">
<path d="M276.1,349.8c43.2,74.6,123.7,124.8,216.1,125C449.1,400.1,368.5,349.9,276.1,349.8z"/>
<path d="M275.7,599.1c86.2-0.1,170-44.8,216.3-124.6C405.8,474.5,322,519.2,275.7,599.1z"/>
<path d="M708.3,349.9c-86.2,0.1-170,44.8-216.3,124.6C578.2,474.5,662,429.8,708.3,349.9z"/>
<path d="M492,224.9c-43,74.7-46.2,169.6-0.2,249.6C534.8,399.9,538,305,492,224.9z"/>
<path d="M707.9,599.2c-43.2-74.6-123.7-124.8-216.1-125C534.9,548.9,615.5,599.1,707.9,599.2z"/>
<path d="M492,724.1c43-74.7,46.2-169.6,0.2-249.6C449.2,549.1,446,644,492,724.1z"/>
</svg>
