<svg xmlns="http://www.w3.org/2000/svg" viewBox="0 0 437.75 505.21"><defs><style>.cls-1{fill:#fff;stroke:#000;stroke-miterlimit:10;stroke-width:3px;}</style></defs><title>icon-flower-reversedAsset 10</title><g id="Layer_2" data-name="Layer 2"><g id="Layer_1-2" data-name="Layer 1"><path class="cls-1" d="M3,127.86a249.93,249.93,0,0,0,216.09,125A249.89,249.89,0,0,0,3,127.86Z"/><path class="cls-1" d="M2.6,377.2A249.86,249.86,0,0,0,218.89,252.56,249.93,249.93,0,0,0,2.6,377.2Z"/><path class="cls-1" d="M435.14,128A249.9,249.9,0,0,0,218.86,252.64,249.86,249.86,0,0,0,435.14,128Z"/><path class="cls-1" d="M218.85,3a249.87,249.87,0,0,0-.2,249.63A249.92,249.92,0,0,0,218.85,3Z"/><path class="cls-1" d="M434.74,377.35a249.89,249.89,0,0,0-216.09-125A249.93,249.93,0,0,0,434.74,377.35Z"/><path class="cls-1" d="M218.9,502.2a249.87,249.87,0,0,0,.2-249.63A249.89,249.89,0,0,0,218.9,502.2Z"/></g></g></svg>