<?xml version="1.0" standalone="no"?>
<!DOCTYPE svg PUBLIC "-//W3C//DTD SVG 20010904//EN"
 "http://www.w3.org/TR/2001/REC-SVG-20010904/DTD/svg10.dtd">
<svg version="1.0" xmlns="http://www.w3.org/2000/svg"
 width="923.000000pt" height="923.000000pt" viewBox="0 0 923.000000 923.000000"
 preserveAspectRatio="xMidYMid meet">
<metadata>
Created by potrace 1.11, written by Peter Selinger 2001-2013
</metadata>
<g transform="translate(0.000000,923.000000) scale(0.100000,-0.100000)"
fill="#000000" stroke="none">
<path d="M4589 9197 c-63 -127 -135 -263 -142 -268 -5 -3 -9 -10 -9 -15 0 -9
-7 -25 -64 -151 -13 -29 -26 -64 -30 -78 -3 -14 -10 -25 -16 -25 -5 0 -7 -4
-4 -8 3 -5 -2 -21 -9 -36 -8 -16 -36 -90 -61 -165 -25 -75 -49 -143 -52 -151
-3 -8 -6 -19 -8 -25 -1 -5 -18 -66 -37 -135 -20 -69 -39 -140 -42 -159 -3 -19
-8 -38 -10 -41 -3 -4 -7 -25 -11 -45 -6 -39 -9 -54 -21 -115 -9 -46 -10 -50
-12 -52 -2 -2 -4 -14 -6 -28 -16 -117 -26 -189 -29 -210 -7 -43 -18 -162 -21
-232 -2 -37 -6 -71 -8 -75 -6 -10 1 -581 8 -643 2 -25 7 -70 9 -100 3 -30 7
-71 10 -90 3 -19 7 -51 10 -70 9 -71 19 -125 41 -245 2 -11 7 -36 10 -55 4
-19 16 -71 27 -115 11 -44 22 -90 24 -102 2 -12 9 -35 15 -50 6 -16 9 -28 8
-28 -1 0 6 -27 16 -60 9 -33 18 -64 20 -70 1 -5 7 -23 14 -40 7 -16 15 -43 18
-60 3 -16 9 -34 13 -40 4 -5 17 -39 29 -75 12 -36 26 -74 31 -85 4 -11 18 -45
30 -75 13 -30 30 -71 38 -90 9 -19 16 -37 17 -40 1 -7 50 -109 91 -192 19 -38
33 -68 31 -68 -3 0 -24 30 -47 68 -43 66 -219 306 -256 349 -10 11 -35 41 -54
65 -137 169 -447 474 -631 619 -35 28 -81 64 -102 81 -42 34 -61 47 -185 133
-48 33 -89 62 -92 65 -3 3 -16 11 -30 19 -14 8 -59 36 -101 61 -176 109 -393
220 -599 308 -19 8 -48 20 -65 27 -36 15 -68 28 -75 29 -5 1 -59 22 -95 36
-35 14 -100 38 -110 40 -5 1 -14 4 -20 5 -15 5 -145 44 -180 55 -39 11 -153
41 -185 47 -27 5 -31 6 -70 16 -14 4 -38 9 -55 12 -190 35 -254 47 -275 50
-43 7 -164 19 -192 20 -16 0 -28 2 -28 5 0 3 -19 6 -43 7 -23 1 -122 5 -221 9
l-179 7 19 -34 c11 -19 21 -36 24 -39 6 -6 23 -33 50 -80 27 -47 44 -74 50
-80 14 -14 50 -70 50 -79 0 -5 4 -11 8 -13 5 -1 23 -25 42 -53 18 -27 36 -52
40 -55 3 -3 31 -40 63 -82 31 -42 63 -83 70 -90 7 -7 25 -29 41 -48 107 -131
341 -372 486 -500 40 -36 79 -71 86 -77 7 -7 17 -13 23 -13 5 0 14 -6 18 -13
26 -41 511 -387 543 -387 5 0 10 -4 10 -10 0 -5 6 -10 13 -10 7 0 28 -10 47
-23 37 -25 265 -149 280 -152 3 -1 50 -23 105 -49 55 -26 140 -63 190 -82 49
-20 104 -42 120 -49 25 -11 65 -25 85 -30 3 -1 12 -5 20 -8 31 -13 216 -71
235 -74 11 -2 31 -7 45 -12 45 -17 260 -68 302 -72 4 0 22 -5 40 -10 18 -5 53
-12 78 -15 25 -2 54 -8 65 -11 11 -4 29 -8 40 -9 25 -2 110 -13 155 -19 19 -3
62 -8 95 -11 33 -3 71 -7 85 -9 14 -2 49 -4 78 -4 62 -1 71 -16 10 -16 -64 -1
-200 -14 -206 -20 -3 -3 -11 0 -19 6 -7 6 -13 7 -13 2 0 -5 -6 -10 -12 -10
-19 0 -130 -14 -153 -18 -11 -3 -36 -7 -55 -10 -19 -2 -46 -7 -60 -10 -14 -3
-43 -8 -65 -11 -22 -3 -58 -10 -80 -16 -22 -6 -49 -12 -60 -14 -11 -2 -74 -17
-140 -34 -147 -37 -149 -38 -152 -40 -2 -2 -6 -3 -10 -4 -58 -15 -105 -30
-138 -43 -22 -8 -47 -17 -55 -18 -8 -2 -46 -16 -85 -30 -38 -14 -83 -31 -100
-37 -16 -6 -34 -15 -39 -19 -6 -5 -20 -9 -32 -9 -12 0 -27 -7 -34 -15 -7 -9
-15 -13 -18 -11 -2 3 -14 0 -26 -6 -11 -7 -23 -13 -26 -13 -24 -5 -289 -135
-295 -146 -4 -5 -15 -9 -25 -9 -10 0 -20 -3 -22 -7 -1 -5 -23 -18 -48 -31 -25
-12 -85 -47 -134 -77 -49 -30 -91 -55 -93 -55 -2 0 -28 -18 -58 -40 -30 -22
-58 -40 -62 -40 -5 0 -20 -11 -35 -25 -15 -14 -30 -25 -33 -25 -7 0 -141 -98
-165 -121 -9 -8 -31 -25 -50 -39 -38 -27 -50 -37 -184 -155 -185 -161 -449
-443 -584 -620 -128 -170 -212 -290 -212 -304 0 -6 -4 -11 -8 -11 -5 0 -14
-10 -21 -23 -6 -12 -20 -35 -31 -52 -10 -16 -32 -54 -49 -83 l-29 -52 156 5
c87 3 171 7 187 9 17 3 67 7 113 11 45 3 92 8 105 11 12 2 42 7 67 10 93 11
105 13 105 14 0 1 9 3 20 4 91 13 264 51 415 91 165 44 143 38 215 60 33 10
63 19 68 21 4 1 9 3 12 4 3 1 8 3 13 5 7 2 18 6 77 28 17 7 32 12 35 12 10 0
260 100 310 124 19 9 37 19 38 24 2 4 12 7 22 7 10 0 22 5 25 10 3 6 15 10 25
10 10 0 20 3 22 8 2 4 39 25 83 47 125 62 434 244 480 283 6 5 24 17 40 28 17
10 35 22 40 27 6 4 42 31 81 60 104 76 147 109 169 129 11 10 31 28 45 39 91
74 154 133 300 279 91 91 183 187 205 213 22 27 49 59 60 72 61 70 101 119
115 140 8 12 40 56 71 97 31 41 78 107 105 148 27 41 52 77 57 78 4 2 7 8 7
12 0 8 43 76 56 90 3 2 -26 -58 -65 -135 -39 -77 -71 -145 -71 -152 0 -7 -4
-13 -10 -13 -5 0 -10 -5 -10 -11 0 -10 -12 -40 -61 -154 -21 -50 -71 -181 -74
-195 -2 -8 -10 -33 -18 -55 -20 -52 -74 -223 -81 -255 -3 -14 -14 -59 -26
-100 -11 -41 -22 -87 -25 -102 -3 -16 -12 -58 -21 -95 -9 -38 -18 -79 -20 -93
-2 -14 -6 -36 -8 -50 -3 -13 -8 -42 -11 -65 -4 -22 -8 -51 -10 -65 -36 -250
-47 -393 -50 -660 -1 -102 2 -193 7 -203 6 -11 5 -17 -2 -17 -6 0 -9 -3 -7 -8
5 -6 13 -99 22 -237 2 -27 5 -50 5 -50 1 0 4 -18 6 -40 5 -59 15 -134 30 -210
3 -16 7 -43 9 -60 2 -16 6 -39 9 -50 2 -11 12 -56 21 -100 34 -165 116 -462
150 -540 7 -16 16 -41 20 -55 3 -14 10 -34 15 -45 4 -11 20 -51 35 -90 46
-120 116 -275 189 -415 38 -74 76 -147 83 -162 17 -34 24 -35 43 -5 26 41 210
409 210 421 0 6 7 24 15 39 24 46 124 311 157 415 25 81 44 148 83 292 3 12
44 205 61 285 2 11 7 40 10 65 3 25 7 52 9 60 7 27 22 140 30 225 2 28 8 84
12 125 10 99 9 599 -1 720 -5 52 -10 113 -11 135 -2 22 -4 40 -5 40 -3 0 -8
35 -13 84 -5 40 -19 137 -32 211 -3 14 -11 54 -19 90 -8 36 -20 90 -26 120
-23 104 -81 306 -131 450 -28 80 -52 150 -53 155 -4 12 -31 78 -48 115 -6 14
-12 27 -13 30 -5 17 -24 58 -72 159 -29 63 -51 116 -49 118 5 5 46 -52 46 -65
0 -6 3 -12 8 -14 4 -1 29 -33 55 -70 26 -36 54 -73 62 -82 8 -8 15 -18 15 -23
0 -4 10 -19 23 -33 12 -14 38 -45 58 -70 20 -25 45 -55 55 -66 11 -12 39 -46
64 -75 52 -62 355 -368 416 -419 22 -19 62 -53 89 -75 26 -22 55 -47 64 -55 9
-8 32 -26 51 -40 19 -13 39 -30 43 -37 4 -7 14 -13 21 -13 8 0 16 -7 20 -15 3
-8 12 -15 21 -15 8 0 15 -4 15 -8 0 -4 18 -19 40 -32 22 -14 40 -28 40 -32 0
-5 7 -8 15 -8 8 0 15 -3 15 -8 0 -4 16 -16 35 -26 19 -11 35 -23 35 -28 0 -4
3 -7 8 -6 4 2 27 -11 52 -28 166 -114 472 -276 695 -368 50 -21 99 -42 110
-47 26 -11 157 -60 170 -63 6 -1 68 -21 139 -44 71 -23 138 -44 150 -47 12 -2
54 -13 94 -24 40 -10 75 -20 77 -20 3 -1 6 -1 8 -2 1 0 9 -2 17 -4 8 -1 60
-12 115 -23 105 -22 163 -32 205 -37 14 -1 39 -5 55 -8 17 -4 53 -9 80 -12 28
-3 70 -7 95 -11 46 -5 77 -8 260 -19 191 -12 221 -12 215 4 -6 16 -144 240
-158 256 -4 6 -38 53 -75 105 -36 52 -71 100 -77 107 -5 6 -21 26 -35 44 -34
45 -174 213 -224 269 -67 74 -308 311 -371 365 -32 28 -63 55 -69 60 -48 47
-378 295 -391 295 -3 0 -15 8 -26 19 -23 21 -346 214 -434 259 -153 77 -249
122 -262 122 -6 0 -13 3 -15 8 -1 4 -41 22 -88 40 -47 19 -94 38 -105 43 -24
11 -244 88 -266 94 -9 2 -47 13 -85 25 -81 25 -56 19 -269 68 -159 37 -203 47
-265 56 -14 2 -47 7 -75 11 -27 5 -59 9 -70 11 -11 1 -20 3 -20 4 0 1 -18 3
-40 4 -22 2 -62 6 -90 10 -68 9 -140 15 -199 15 -68 1 -54 9 29 16 39 3 97 8
130 11 73 6 127 12 180 20 22 3 51 7 65 9 86 13 284 49 300 55 3 1 10 3 15 4
6 1 24 5 40 9 17 4 41 9 54 12 13 2 49 12 80 21 31 9 66 18 79 20 13 3 44 12
69 20 25 9 53 17 62 19 75 17 425 153 568 221 39 19 76 34 81 34 5 0 15 7 22
15 6 8 15 14 18 13 12 -3 218 108 347 188 22 13 47 27 55 31 8 4 17 9 20 13 4
5 93 66 199 135 8 6 26 20 40 33 14 12 29 22 32 22 6 0 40 26 173 133 22 18
56 46 75 64 20 17 61 53 91 80 78 69 263 256 345 348 39 43 78 87 88 97 9 10
17 20 17 22 0 3 11 17 25 32 38 41 175 224 175 234 0 4 4 10 8 12 11 4 122
166 122 177 0 5 4 11 8 13 7 3 54 75 94 146 l18 33 -152 -6 c-84 -3 -175 -7
-202 -9 -93 -8 -181 -17 -208 -22 -15 -3 -46 -7 -70 -9 -24 -1 -50 -5 -58 -8
-16 -6 -163 -30 -196 -32 -11 -1 -24 -4 -30 -7 -5 -4 -29 -9 -53 -13 -24 -3
-54 -10 -67 -15 -13 -5 -24 -8 -24 -5 0 2 -23 -3 -52 -11 -28 -9 -60 -18 -70
-20 -10 -2 -26 -6 -37 -8 -24 -6 -221 -65 -241 -73 -8 -3 -19 -7 -25 -9 -35
-9 -249 -91 -312 -120 -17 -8 -34 -14 -37 -14 -7 0 -184 -83 -246 -115 -25
-13 -74 -39 -110 -57 -36 -19 -76 -41 -90 -50 -14 -9 -41 -25 -60 -35 -19 -10
-46 -25 -59 -33 -40 -25 -215 -139 -234 -152 -27 -18 -120 -86 -132 -95 -6 -4
-28 -21 -50 -38 -22 -16 -45 -34 -51 -40 -6 -5 -23 -19 -38 -30 -15 -11 -38
-29 -50 -40 -13 -11 -49 -42 -82 -70 -87 -75 -371 -359 -449 -450 -38 -44 -72
-81 -77 -83 -4 -2 -8 -10 -8 -18 0 -8 -4 -14 -8 -14 -5 0 -24 -21 -42 -47 -19
-27 -37 -50 -40 -53 -9 -8 -54 -65 -70 -90 -8 -12 -34 -48 -57 -81 -24 -32
-43 -63 -43 -69 0 -5 -4 -10 -8 -10 -5 0 -19 -19 -32 -42 -13 -24 -27 -45 -30
-48 -11 -8 -34 -54 -32 -63 1 -5 -2 -6 -8 -2 -7 4 -8 11 -2 18 21 26 100 186
94 191 -3 3 0 6 6 6 7 0 12 4 12 9 0 4 14 39 32 77 17 38 32 71 33 74 1 3 9
23 19 45 34 76 152 402 161 445 2 8 17 65 34 125 17 61 33 119 35 130 3 11 10
43 16 70 7 28 14 59 16 70 4 27 13 72 25 122 5 24 9 46 8 50 -1 5 0 10 1 13 7
19 24 137 35 240 4 36 8 79 10 95 19 152 24 524 11 720 -13 193 -12 182 -31
325 -17 122 -19 134 -51 305 -49 264 -190 707 -297 935 -12 25 -21 48 -21 51
-2 12 -178 356 -194 376 l-17 22 -16 -32z m2 -4624 c-12 -20 -14 -14 -5 12 4
9 9 14 11 11 3 -2 0 -13 -6 -23z m149 -163 c0 -5 -2 -10 -4 -10 -3 0 -8 5 -11
10 -3 6 -1 10 4 10 6 0 11 -4 11 -10z"/>
</g>
</svg>
